<?xml version="1.0" encoding="UTF-8" standalone="no"?>
<svg
   xmlns:dc="http://purl.org/dc/elements/1.1/"
   xmlns:cc="http://creativecommons.org/ns#"
   xmlns:rdf="http://www.w3.org/1999/02/22-rdf-syntax-ns#"
   xmlns:svg="http://www.w3.org/2000/svg"
   xmlns="http://www.w3.org/2000/svg"
   xmlns:sodipodi="http://sodipodi.sourceforge.net/DTD/sodipodi-0.dtd"
   xmlns:inkscape="http://www.inkscape.org/namespaces/inkscape"
   inkscape:version="1.0 (4035a4fb49, 2020-05-01)"
   sodipodi:docname="favicon.svg"
   id="svg887"
   version="1.1"
   width="24px"
   viewBox="0 0 24 24"
   height="24px"
   enable-background="new 0 0 24 24">
  <metadata
     id="metadata893">
    <rdf:RDF>
      <cc:Work
         rdf:about="">
        <dc:format>image/svg+xml</dc:format>
        <dc:type
           rdf:resource="http://purl.org/dc/dcmitype/StillImage" />
        <dc:title></dc:title>
      </cc:Work>
    </rdf:RDF>
  </metadata>
  <defs
     id="defs891" />
  <sodipodi:namedview
     inkscape:current-layer="svg887"
     inkscape:window-maximized="1"
     inkscape:window-y="-9"
     inkscape:window-x="-9"
     inkscape:cy="18.483515"
     inkscape:cx="-1.4141154"
     inkscape:zoom="10.827573"
     showgrid="false"
     id="namedview889"
     inkscape:window-height="991"
     inkscape:window-width="1920"
     inkscape:pageshadow="2"
     inkscape:pageopacity="0"
     guidetolerance="10"
     gridtolerance="10"
     objecttolerance="10"
     borderopacity="1"
     bordercolor="#666666"
     pagecolor="#ffffff" />
     <style>
        svg {
            fill: black;
        }
        @media (prefers-color-scheme: dark) {
            svg {
                fill: white;
            }
        }
     </style>
  <g
     id="g879">
    <path
       id="path877"
       fill="none"
       d="M0,0h24v24H0V0z" />
  </g>
  <g
     id="g885">
    <g
       id="g883">
      <path
         id="path881"
         d="M17,1.01L7,1C5.9,1,5,1.9,5,3v18c0,1.1,0.9,2,2,2h10c1.1,0,2-0.9,2-2V3C19,1.9,18.1,1.01,17,1.01z M17,21H7v-1h10V21z M17,18H7V6h10V18z M17,4H7V3h10V4z M9.5,8.5H12V7H8v4h1.5V8.5z M12,17h4v-4h-1.5v2.5H12V17z" />
    </g>
  </g>
</svg>
